<svg xmlns="http://www.w3.org/2000/svg" width="480" height="525" class="">
    <defs>
        <style/>
    </defs>
    <style>@keyframes animation-gauge{0%{stroke-dasharray:0 329}}@keyframes animation-rainbow{0%,to{color:#7f00ff;fill:#7f00ff}14%{color:#a933ff;fill:#a933ff}29%{color:#007fff;fill:#007fff}43%{color:#00ff7f;fill:#00ff7f}57%{color:#ff0;fill:#ff0}71%{color:#ff7f00;fill:#ff7f00}86%{color:red;fill:red}}svg{font-family:-apple-system,BlinkMacSystemFont,Segoe UI,Helvetica,Arial,sans-serif,Apple Color Emoji,Segoe UI Emoji;color:#777}h2,h3{margin:8px 0 2px;padding:0;color:#0366d6;font-weight:400}h2 svg,h3 svg{fill:currentColor}h2{font-size:16px}h3,svg{font-size:14px}.h-details{margin:0 4px;padding-top:4px;font-size:.8rem}section&gt;.field{margin-left:5px;margin-right:5px}.field{display:flex;align-items:center;margin-bottom:2px;white-space:nowrap}.field.wrap,.row{flex-wrap:wrap}.field svg{margin:0 8px;fill:#959da5;flex-shrink:0}.row{display:flex}.row section{flex:1 1 0}.column{display:flex;flex-direction:column;align-items:center}.margin-bottom{margin-bottom:16px}.habits .facts{margin:0;list-style-type:none;padding-left:37px}.chart{padding:0 8px}.activity{margin-bottom:12px}.activity .field{width:100%;overflow:hidden;text-overflow:ellipsis;max-width:450px;white-space:nowrap;margin-bottom:0}.activity .code,code{background-color:#7777771f;border-radius:6px;color:#777;padding:1px 5px;font-size:80%;font-family:SFMono-Regular,Consolas,Liberation Mono,Menlo,monospace}.activity .code{margin:0 4px -3px}code{display:inline-block}:root{--color-calendar-graph-day-bg:#ebedf0;--color-calendar-graph-day-border:rgba(27,31,35,0.06);--color-calendar-graph-day-L1-bg:#9be9a8;--color-calendar-graph-day-L2-bg:#40c463;--color-calendar-graph-day-L3-bg:#30a14e;--color-calendar-graph-day-L4-bg:#216e39;--color-calendar-halloween-graph-day-L1-bg:#ffee4a;--color-calendar-halloween-graph-day-L2-bg:#ffc501;--color-calendar-halloween-graph-day-L3-bg:#fe9600;--color-calendar-halloween-graph-day-L4-bg:#03001c;--color-calendar-winter-graph-day-L1-bg:#0a3069;--color-calendar-winter-graph-day-L2-bg:#0969da;--color-calendar-winter-graph-day-L3-bg:#54aeff;--color-calendar-winter-graph-day-L4-bg:#b6e3ff;--color-calendar-graph-day-L4-border:rgba(27,31,35,0.06);--color-calendar-graph-day-L3-border:rgba(27,31,35,0.06);--color-calendar-graph-day-L2-border:rgba(27,31,35,0.06);--color-calendar-graph-day-L1-border:rgba(27,31,35,0.06)}#metrics-end{width:100%}</style>
    <style/>
    <foreignObject x="0" y="0" width="100%" height="100%">
        <div xmlns="http://www.w3.org/1999/xhtml" xmlns:xlink="http://www.w3.org/1999/xlink" class="items-wrapper">
            <section class="habits">
                <h2 class="field wrap">
                    <svg xmlns="http://www.w3.org/2000/svg" viewBox="0 0 16 16" width="16" height="16">
                        <path fill-rule="evenodd" d="M8 1.5c-2.363 0-4 1.69-4 3.75 0 .984.424 1.625.984 2.304l.214.253c.223.264.47.556.673.848.284.411.537.896.621 1.49a.75.75 0 01-1.484.211c-.04-.282-.163-.547-.37-.847a8.695 8.695 0 00-.542-.68c-.084-.1-.173-.205-.268-.32C3.201 7.75 2.5 6.766 2.5 5.25 2.5 2.31 4.863 0 8 0s5.5 2.31 5.5 5.25c0 1.516-.701 2.5-1.328 3.259-.095.115-.184.22-.268.319-.207.245-.383.453-.541.681-.208.3-.33.565-.37.847a.75.75 0 01-1.485-.212c.084-.593.337-1.078.621-1.489.203-.292.45-.584.673-.848.075-.088.147-.173.213-.253.561-.679.985-1.32.985-2.304 0-2.06-1.637-3.75-4-3.75zM6 15.25a.75.75 0 01.75-.75h2.5a.75.75 0 010 1.5h-2.5a.75.75 0 01-.75-.75zM5.75 12a.75.75 0 000 1.5h4.5a.75.75 0 000-1.5h-4.5z"/>
                    </svg>
                    Recent coding habits
                    <small class="h-details">(computed from last 54 commits)</small>
                </h2>
                <div class="row">
                    <ul class="facts">
                        <li>Mostly pushes code around 17:00</li>
                        <li>Mostly active on Tuesday</li>
                    </ul>
                </div>
            </section>
            <section class="habits">
                <div class="column chart largeable">
                    <h3>Commit activity per hour of day</h3>
                    <div class="row margin-bottom">
                        <svg xmlns="http://www.w3.org/2000/svg" width="480" height="160">
                            <g transform="translate(10,115)" fill="none" font-size="10" font-family="sans-serif" text-anchor="middle">
                                <path class="domain" stroke="rgba(127, 127, 127, .8)" d="M10.5,0.5H460.5"/>
                                <g class="tick" opacity="1" transform="translate(10.5,0)">
                                    <line stroke="currentColor" y2="6" stroke-opacity="0.5"/>
                                    <text fill="rgba(127, 127, 127, .8)" y="9" dy="0.71em" transform="translate(-5,5) rotate(-45)" style="text-anchor: end;">0</text>
                                </g>
                                <g class="tick" opacity="1" transform="translate(30.065217391304348,0)">
                                    <line stroke="currentColor" y2="6" stroke-opacity="0.5"/>
                                    <text fill="rgba(127, 127, 127, .8)" y="9" dy="0.71em" transform="translate(-5,5) rotate(-45)" style="text-anchor: end;">1</text>
                                </g>
                                <g class="tick" opacity="1" transform="translate(49.630434782608695,0)">
                                    <line stroke="currentColor" y2="6" stroke-opacity="0.5"/>
                                    <text fill="rgba(127, 127, 127, .8)" y="9" dy="0.71em" transform="translate(-5,5) rotate(-45)" style="text-anchor: end;">2</text>
                                </g>
                                <g class="tick" opacity="1" transform="translate(69.19565217391305,0)">
                                    <line stroke="currentColor" y2="6" stroke-opacity="0.5"/>
                                    <text fill="rgba(127, 127, 127, .8)" y="9" dy="0.71em" transform="translate(-5,5) rotate(-45)" style="text-anchor: end;">3</text>
                                </g>
                                <g class="tick" opacity="1" transform="translate(88.76086956521739,0)">
                                    <line stroke="currentColor" y2="6" stroke-opacity="0.5"/>
                                    <text fill="rgba(127, 127, 127, .8)" y="9" dy="0.71em" transform="translate(-5,5) rotate(-45)" style="text-anchor: end;">4</text>
                                </g>
                                <g class="tick" opacity="1" transform="translate(108.32608695652173,0)">
                                    <line stroke="currentColor" y2="6" stroke-opacity="0.5"/>
                                    <text fill="rgba(127, 127, 127, .8)" y="9" dy="0.71em" transform="translate(-5,5) rotate(-45)" style="text-anchor: end;">5</text>
                                </g>
                                <g class="tick" opacity="1" transform="translate(127.8913043478261,0)">
                                    <line stroke="currentColor" y2="6" stroke-opacity="0.5"/>
                                    <text fill="rgba(127, 127, 127, .8)" y="9" dy="0.71em" transform="translate(-5,5) rotate(-45)" style="text-anchor: end;">6</text>
                                </g>
                                <g class="tick" opacity="1" transform="translate(147.45652173913044,0)">
                                    <line stroke="currentColor" y2="6" stroke-opacity="0.5"/>
                                    <text fill="rgba(127, 127, 127, .8)" y="9" dy="0.71em" transform="translate(-5,5) rotate(-45)" style="text-anchor: end;">7</text>
                                </g>
                                <g class="tick" opacity="1" transform="translate(167.02173913043478,0)">
                                    <line stroke="currentColor" y2="6" stroke-opacity="0.5"/>
                                    <text fill="rgba(127, 127, 127, .8)" y="9" dy="0.71em" transform="translate(-5,5) rotate(-45)" style="text-anchor: end;">8</text>
                                </g>
                                <g class="tick" opacity="1" transform="translate(186.58695652173913,0)">
                                    <line stroke="currentColor" y2="6" stroke-opacity="0.5"/>
                                    <text fill="rgba(127, 127, 127, .8)" y="9" dy="0.71em" transform="translate(-5,5) rotate(-45)" style="text-anchor: end;">9</text>
                                </g>
                                <g class="tick" opacity="1" transform="translate(206.15217391304347,0)">
                                    <line stroke="currentColor" y2="6" stroke-opacity="0.5"/>
                                    <text fill="rgba(127, 127, 127, .8)" y="9" dy="0.71em" transform="translate(-5,5) rotate(-45)" style="text-anchor: end;">10</text>
                                </g>
                                <g class="tick" opacity="1" transform="translate(225.7173913043478,0)">
                                    <line stroke="currentColor" y2="6" stroke-opacity="0.5"/>
                                    <text fill="rgba(127, 127, 127, .8)" y="9" dy="0.71em" transform="translate(-5,5) rotate(-45)" style="text-anchor: end;">11</text>
                                </g>
                                <g class="tick" opacity="1" transform="translate(245.2826086956522,0)">
                                    <line stroke="currentColor" y2="6" stroke-opacity="0.5"/>
                                    <text fill="rgba(127, 127, 127, .8)" y="9" dy="0.71em" transform="translate(-5,5) rotate(-45)" style="text-anchor: end;">12</text>
                                </g>
                                <g class="tick" opacity="1" transform="translate(264.8478260869565,0)">
                                    <line stroke="currentColor" y2="6" stroke-opacity="0.5"/>
                                    <text fill="rgba(127, 127, 127, .8)" y="9" dy="0.71em" transform="translate(-5,5) rotate(-45)" style="text-anchor: end;">13</text>
                                </g>
                                <g class="tick" opacity="1" transform="translate(284.4130434782609,0)">
                                    <line stroke="currentColor" y2="6" stroke-opacity="0.5"/>
                                    <text fill="rgba(127, 127, 127, .8)" y="9" dy="0.71em" transform="translate(-5,5) rotate(-45)" style="text-anchor: end;">14</text>
                                </g>
                                <g class="tick" opacity="1" transform="translate(303.9782608695652,0)">
                                    <line stroke="currentColor" y2="6" stroke-opacity="0.5"/>
                                    <text fill="rgba(127, 127, 127, .8)" y="9" dy="0.71em" transform="translate(-5,5) rotate(-45)" style="text-anchor: end;">15</text>
                                </g>
                                <g class="tick" opacity="1" transform="translate(323.54347826086956,0)">
                                    <line stroke="currentColor" y2="6" stroke-opacity="0.5"/>
                                    <text fill="rgba(127, 127, 127, .8)" y="9" dy="0.71em" transform="translate(-5,5) rotate(-45)" style="text-anchor: end;">16</text>
                                </g>
                                <g class="tick" opacity="1" transform="translate(343.10869565217394,0)">
                                    <line stroke="currentColor" y2="6" stroke-opacity="0.5"/>
                                    <text fill="rgba(127, 127, 127, .8)" y="9" dy="0.71em" transform="translate(-5,5) rotate(-45)" style="text-anchor: end;">17</text>
                                </g>
                                <g class="tick" opacity="1" transform="translate(362.67391304347825,0)">
                                    <line stroke="currentColor" y2="6" stroke-opacity="0.5"/>
                                    <text fill="rgba(127, 127, 127, .8)" y="9" dy="0.71em" transform="translate(-5,5) rotate(-45)" style="text-anchor: end;">18</text>
                                </g>
                                <g class="tick" opacity="1" transform="translate(382.2391304347826,0)">
                                    <line stroke="currentColor" y2="6" stroke-opacity="0.5"/>
                                    <text fill="rgba(127, 127, 127, .8)" y="9" dy="0.71em" transform="translate(-5,5) rotate(-45)" style="text-anchor: end;">19</text>
                                </g>
                                <g class="tick" opacity="1" transform="translate(401.80434782608694,0)">
                                    <line stroke="currentColor" y2="6" stroke-opacity="0.5"/>
                                    <text fill="rgba(127, 127, 127, .8)" y="9" dy="0.71em" transform="translate(-5,5) rotate(-45)" style="text-anchor: end;">20</text>
                                </g>
                                <g class="tick" opacity="1" transform="translate(421.3695652173913,0)">
                                    <line stroke="currentColor" y2="6" stroke-opacity="0.5"/>
                                    <text fill="rgba(127, 127, 127, .8)" y="9" dy="0.71em" transform="translate(-5,5) rotate(-45)" style="text-anchor: end;">21</text>
                                </g>
                                <g class="tick" opacity="1" transform="translate(440.9347826086956,0)">
                                    <line stroke="currentColor" y2="6" stroke-opacity="0.5"/>
                                    <text fill="rgba(127, 127, 127, .8)" y="9" dy="0.71em" transform="translate(-5,5) rotate(-45)" style="text-anchor: end;">22</text>
                                </g>
                                <g class="tick" opacity="1" transform="translate(460.5,0)">
                                    <line stroke="currentColor" y2="6" stroke-opacity="0.5"/>
                                    <text fill="rgba(127, 127, 127, .8)" y="9" dy="0.71em" transform="translate(-5,5) rotate(-45)" style="text-anchor: end;">23</text>
                                </g>
                            </g>
                            <g transform="translate(10,10)" fill="none" font-size="10" font-family="sans-serif" text-anchor="start">
                                <g class="tick" opacity="1" transform="translate(0,10.5)">
                                    <line stroke="currentColor" x2="460" stroke-opacity="0.5" stroke-dasharray="2,2"/>
                                    <text fill="rgba(127, 127, 127, .8)" x="0" dy="-4">8</text>
                                </g>
                                <g class="tick" opacity="1" transform="translate(0,34.25)">
                                    <line stroke="currentColor" x2="460" stroke-opacity="0.5" stroke-dasharray="2,2"/>
                                    <text fill="rgba(127, 127, 127, .8)" x="0" dy="-4">6</text>
                                </g>
                                <g class="tick" opacity="1" transform="translate(0,58)">
                                    <line stroke="currentColor" x2="460" stroke-opacity="0.5" stroke-dasharray="2,2"/>
                                    <text fill="rgba(127, 127, 127, .8)" x="0" dy="-4">4</text>
                                </g>
                                <g class="tick" opacity="1" transform="translate(0,81.75)">
                                    <line stroke="currentColor" x2="460" stroke-opacity="0.5" stroke-dasharray="2,2"/>
                                    <text fill="rgba(127, 127, 127, .8)" x="0" dy="-4">2</text>
                                </g>
                                <g class="tick" opacity="1" transform="translate(0,105.5)">
                                    <line stroke="currentColor" x2="460" stroke-opacity="0.5" stroke-dasharray="2,2"/>
                                    <text fill="rgba(127, 127, 127, .8)" x="0" dy="-4">0</text>
                                </g>
                            </g>
                            <path transform="translate(10,10)" d="M10,105L29.565,105L49.13,105L68.696,105L88.261,105L107.826,105L127.391,105L146.957,105L166.522,105L186.087,93.125L205.652,69.375L225.217,45.625L244.783,33.75L264.348,93.125L283.913,45.625L303.478,21.875L323.043,33.75L342.609,10L362.174,69.375L381.739,21.875L401.304,105L420.87,93.125L440.435,93.125L460,105" fill="transparent" stroke="#87ceeb" stroke-width="2"/>
                            <path transform="translate(10,10)" d="M10,105L29.565,105L49.13,105L68.696,105L88.261,105L107.826,105L127.391,105L146.957,105L166.522,105L186.087,105L205.652,105L225.217,105L244.783,105L264.348,105L283.913,105L303.478,105L323.043,105L342.609,105L362.174,105L381.739,105L401.304,105L420.87,105L440.435,105L460,105L460,105L440.435,93.125L420.87,93.125L401.304,105L381.739,21.875L362.174,69.375L342.609,10L323.043,33.75L303.478,21.875L283.913,45.625L264.348,93.125L244.783,33.75L225.217,45.625L205.652,69.375L186.087,93.125L166.522,105L146.957,105L127.391,105L107.826,105L88.261,105L68.696,105L49.13,105L29.565,105L10,105Z" fill="rgba(88, 166, 255, .1)"/>
                            <g>
                                <circle transform="translate(10,10)" cx="10" cy="105" r="2" fill="#106cbc"/>
                                <circle transform="translate(10,10)" cx="29.565217391304348" cy="105" r="2" fill="#106cbc"/>
                                <circle transform="translate(10,10)" cx="49.130434782608695" cy="105" r="2" fill="#106cbc"/>
                                <circle transform="translate(10,10)" cx="68.69565217391305" cy="105" r="2" fill="#106cbc"/>
                                <circle transform="translate(10,10)" cx="88.26086956521739" cy="105" r="2" fill="#106cbc"/>
                                <circle transform="translate(10,10)" cx="107.82608695652173" cy="105" r="2" fill="#106cbc"/>
                                <circle transform="translate(10,10)" cx="127.3913043478261" cy="105" r="2" fill="#106cbc"/>
                                <circle transform="translate(10,10)" cx="146.95652173913044" cy="105" r="2" fill="#106cbc"/>
                                <circle transform="translate(10,10)" cx="166.52173913043478" cy="105" r="2" fill="#106cbc"/>
                                <circle transform="translate(10,10)" cx="186.08695652173913" cy="93.125" r="2" fill="#106cbc"/>
                                <circle transform="translate(10,10)" cx="205.65217391304347" cy="69.375" r="2" fill="#106cbc"/>
                                <circle transform="translate(10,10)" cx="225.2173913043478" cy="45.625" r="2" fill="#106cbc"/>
                                <circle transform="translate(10,10)" cx="244.7826086956522" cy="33.75" r="2" fill="#106cbc"/>
                                <circle transform="translate(10,10)" cx="264.3478260869565" cy="93.125" r="2" fill="#106cbc"/>
                                <circle transform="translate(10,10)" cx="283.9130434782609" cy="45.625" r="2" fill="#106cbc"/>
                                <circle transform="translate(10,10)" cx="303.4782608695652" cy="21.875" r="2" fill="#106cbc"/>
                                <circle transform="translate(10,10)" cx="323.04347826086956" cy="33.75" r="2" fill="#106cbc"/>
                                <circle transform="translate(10,10)" cx="342.60869565217394" cy="10" r="2" fill="#106cbc"/>
                                <circle transform="translate(10,10)" cx="362.17391304347825" cy="69.375" r="2" fill="#106cbc"/>
                                <circle transform="translate(10,10)" cx="381.7391304347826" cy="21.875" r="2" fill="#106cbc"/>
                                <circle transform="translate(10,10)" cx="401.30434782608694" cy="105" r="2" fill="#106cbc"/>
                                <circle transform="translate(10,10)" cx="420.8695652173913" cy="93.125" r="2" fill="#106cbc"/>
                                <circle transform="translate(10,10)" cx="440.4347826086956" cy="93.125" r="2" fill="#106cbc"/>
                                <circle transform="translate(10,10)" cx="460" cy="105" r="2" fill="#106cbc"/>
                            </g>
                            <g fill="currentColor" text-anchor="middle" font-family="sans-serif" font-size="10" stroke="rgba(88, 166, 255, .05)" stroke-linejoin="round" stroke-width="4" paint-order="stroke fill">
                                <text transform="translate(10,6)" x="10" y="105" fill="rgba(127, 127, 127, .8)"/>
                                <text transform="translate(10,6)" x="29.565217391304348" y="105" fill="rgba(127, 127, 127, .8)"/>
                                <text transform="translate(10,6)" x="49.130434782608695" y="105" fill="rgba(127, 127, 127, .8)"/>
                                <text transform="translate(10,6)" x="68.69565217391305" y="105" fill="rgba(127, 127, 127, .8)"/>
                                <text transform="translate(10,6)" x="88.26086956521739" y="105" fill="rgba(127, 127, 127, .8)"/>
                                <text transform="translate(10,6)" x="107.82608695652173" y="105" fill="rgba(127, 127, 127, .8)"/>
                                <text transform="translate(10,6)" x="127.3913043478261" y="105" fill="rgba(127, 127, 127, .8)"/>
                                <text transform="translate(10,6)" x="146.95652173913044" y="105" fill="rgba(127, 127, 127, .8)"/>
                                <text transform="translate(10,6)" x="166.52173913043478" y="105" fill="rgba(127, 127, 127, .8)"/>
                                <text transform="translate(10,6)" x="186.08695652173913" y="93.125" fill="rgba(127, 127, 127, .8)">1</text>
                                <text transform="translate(10,6)" x="205.65217391304347" y="69.375" fill="rgba(127, 127, 127, .8)">3</text>
                                <text transform="translate(10,6)" x="225.2173913043478" y="45.625" fill="rgba(127, 127, 127, .8)">5</text>
                                <text transform="translate(10,6)" x="244.7826086956522" y="33.75" fill="rgba(127, 127, 127, .8)">6</text>
                                <text transform="translate(10,6)" x="264.3478260869565" y="93.125" fill="rgba(127, 127, 127, .8)">1</text>
                                <text transform="translate(10,6)" x="283.9130434782609" y="45.625" fill="rgba(127, 127, 127, .8)">5</text>
                                <text transform="translate(10,6)" x="303.4782608695652" y="21.875" fill="rgba(127, 127, 127, .8)">7</text>
                                <text transform="translate(10,6)" x="323.04347826086956" y="33.75" fill="rgba(127, 127, 127, .8)">6</text>
                                <text transform="translate(10,6)" x="342.60869565217394" y="10" fill="rgba(127, 127, 127, .8)">8</text>
                                <text transform="translate(10,6)" x="362.17391304347825" y="69.375" fill="rgba(127, 127, 127, .8)">3</text>
                                <text transform="translate(10,6)" x="381.7391304347826" y="21.875" fill="rgba(127, 127, 127, .8)">7</text>
                                <text transform="translate(10,6)" x="401.30434782608694" y="105" fill="rgba(127, 127, 127, .8)"/>
                                <text transform="translate(10,6)" x="420.8695652173913" y="93.125" fill="rgba(127, 127, 127, .8)">1</text>
                                <text transform="translate(10,6)" x="440.4347826086956" y="93.125" fill="rgba(127, 127, 127, .8)">1</text>
                                <text transform="translate(10,6)" x="460" y="105" fill="rgba(127, 127, 127, .8)"/>
                            </g>
                        </svg>
                    </div>
                </div>
                <div class="row largeable">
                    <section class="column chart">
                        <h3>Commit activity per day of week</h3>
                        <div class="margin-bottom">
                            <svg xmlns="http://www.w3.org/2000/svg" width="216" height="160">
                                <g transform="translate(10,115)" fill="none" font-size="10" font-family="sans-serif" text-anchor="middle">
                                    <path class="domain" stroke="rgba(127, 127, 127, .8)" d="M10.5,0.5H196.5"/>
                                    <g class="tick" opacity="1" transform="translate(10.5,0)">
                                        <line stroke="currentColor" y2="6" stroke-opacity="0.5"/>
                                        <text fill="rgba(127, 127, 127, .8)" y="9" dy="0.71em" transform="translate(-5,5) rotate(-45)" style="text-anchor: end;">Sun</text>
                                    </g>
                                    <g class="tick" opacity="1" transform="translate(41.5,0)">
                                        <line stroke="currentColor" y2="6" stroke-opacity="0.5"/>
                                        <text fill="rgba(127, 127, 127, .8)" y="9" dy="0.71em" transform="translate(-5,5) rotate(-45)" style="text-anchor: end;">Mon</text>
                                    </g>
                                    <g class="tick" opacity="1" transform="translate(72.5,0)">
                                        <line stroke="currentColor" y2="6" stroke-opacity="0.5"/>
                                        <text fill="rgba(127, 127, 127, .8)" y="9" dy="0.71em" transform="translate(-5,5) rotate(-45)" style="text-anchor: end;">Tue</text>
                                    </g>
                                    <g class="tick" opacity="1" transform="translate(103.5,0)">
                                        <line stroke="currentColor" y2="6" stroke-opacity="0.5"/>
                                        <text fill="rgba(127, 127, 127, .8)" y="9" dy="0.71em" transform="translate(-5,5) rotate(-45)" style="text-anchor: end;">Wed</text>
                                    </g>
                                    <g class="tick" opacity="1" transform="translate(134.5,0)">
                                        <line stroke="currentColor" y2="6" stroke-opacity="0.5"/>
                                        <text fill="rgba(127, 127, 127, .8)" y="9" dy="0.71em" transform="translate(-5,5) rotate(-45)" style="text-anchor: end;">Thu</text>
                                    </g>
                                    <g class="tick" opacity="1" transform="translate(165.5,0)">
                                        <line stroke="currentColor" y2="6" stroke-opacity="0.5"/>
                                        <text fill="rgba(127, 127, 127, .8)" y="9" dy="0.71em" transform="translate(-5,5) rotate(-45)" style="text-anchor: end;">Fri</text>
                                    </g>
                                    <g class="tick" opacity="1" transform="translate(196.5,0)">
                                        <line stroke="currentColor" y2="6" stroke-opacity="0.5"/>
                                        <text fill="rgba(127, 127, 127, .8)" y="9" dy="0.71em" transform="translate(-5,5) rotate(-45)" style="text-anchor: end;">Sat</text>
                                    </g>
                                </g>
                                <g transform="translate(10,10)" fill="none" font-size="10" font-family="sans-serif" text-anchor="start">
                                    <g class="tick" opacity="1" transform="translate(0,10.5)">
                                        <line stroke="currentColor" x2="196" stroke-opacity="0.5" stroke-dasharray="2,2"/>
                                        <text fill="rgba(127, 127, 127, .8)" x="0" dy="-4">20</text>
                                    </g>
                                    <g class="tick" opacity="1" transform="translate(0,34.25)">
                                        <line stroke="currentColor" x2="196" stroke-opacity="0.5" stroke-dasharray="2,2"/>
                                        <text fill="rgba(127, 127, 127, .8)" x="0" dy="-4">15</text>
                                    </g>
                                    <g class="tick" opacity="1" transform="translate(0,58)">
                                        <line stroke="currentColor" x2="196" stroke-opacity="0.5" stroke-dasharray="2,2"/>
                                        <text fill="rgba(127, 127, 127, .8)" x="0" dy="-4">10</text>
                                    </g>
                                    <g class="tick" opacity="1" transform="translate(0,81.75)">
                                        <line stroke="currentColor" x2="196" stroke-opacity="0.5" stroke-dasharray="2,2"/>
                                        <text fill="rgba(127, 127, 127, .8)" x="0" dy="-4">5</text>
                                    </g>
                                    <g class="tick" opacity="1" transform="translate(0,105.5)">
                                        <line stroke="currentColor" x2="196" stroke-opacity="0.5" stroke-dasharray="2,2"/>
                                        <text fill="rgba(127, 127, 127, .8)" x="0" dy="-4">0</text>
                                    </g>
                                </g>
                                <path transform="translate(10,10)" d="M10,95.5L41,71.75L72,10L103,76.5L134,95.5L165,24.25L196,105" fill="transparent" stroke="#87ceeb" stroke-width="2"/>
                                <path transform="translate(10,10)" d="M10,105L41,105L72,105L103,105L134,105L165,105L196,105L196,105L165,24.25L134,95.5L103,76.5L72,10L41,71.75L10,95.5Z" fill="rgba(88, 166, 255, .1)"/>
                                <g>
                                    <circle transform="translate(10,10)" cx="10" cy="95.5" r="2" fill="#106cbc"/>
                                    <circle transform="translate(10,10)" cx="41" cy="71.75" r="2" fill="#106cbc"/>
                                    <circle transform="translate(10,10)" cx="72" cy="10" r="2" fill="#106cbc"/>
                                    <circle transform="translate(10,10)" cx="103" cy="76.5" r="2" fill="#106cbc"/>
                                    <circle transform="translate(10,10)" cx="134" cy="95.5" r="2" fill="#106cbc"/>
                                    <circle transform="translate(10,10)" cx="165" cy="24.25" r="2" fill="#106cbc"/>
                                    <circle transform="translate(10,10)" cx="196" cy="105" r="2" fill="#106cbc"/>
                                </g>
                                <g fill="currentColor" text-anchor="middle" font-family="sans-serif" font-size="10" stroke="rgba(88, 166, 255, .05)" stroke-linejoin="round" stroke-width="4" paint-order="stroke fill">
                                    <text transform="translate(10,6)" x="10" y="95.5" fill="rgba(127, 127, 127, .8)">2</text>
                                    <text transform="translate(10,6)" x="41" y="71.75" fill="rgba(127, 127, 127, .8)">7</text>
                                    <text transform="translate(10,6)" x="72" y="10" fill="rgba(127, 127, 127, .8)">20</text>
                                    <text transform="translate(10,6)" x="103" y="76.5" fill="rgba(127, 127, 127, .8)">6</text>
                                    <text transform="translate(10,6)" x="134" y="95.5" fill="rgba(127, 127, 127, .8)">2</text>
                                    <text transform="translate(10,6)" x="165" y="24.25" fill="rgba(127, 127, 127, .8)">17</text>
                                    <text transform="translate(10,6)" x="196" y="105" fill="rgba(127, 127, 127, .8)"/>
                                </g>
                            </svg>
                        </div>
                    </section>
                </div>
            </section>
        </div>
        <div xmlns="http://www.w3.org/1999/xhtml" id="metrics-end"></div>
    </foreignObject>
</svg>